PathFileType	4	(X/Y/Z)	./resultDataOpenSim/trcMotMarkerGrf/sub09/qtm-02-02.trc
DataRate	CameraRate	NumFrames	NumMarkers	Units	OrigDataRate	OrigDataStartFrame	OrigNumFrames
250.000000	250.000000	5	24	m	250.000000	122	484
Frame#	Time	L.Toe.Tip			R.Toe.Tip			L.Ankle.Lat			R.Ankle.Lat			L.Ankle.Med			R.Ankle.Med			L.Heel			R.Heel			L.Knee.Lat			R.Knee.Lat			L.Knee.Med			R.Knee.Med			L.Thigh.Upper			R.Thigh.Upper			L.ASIS			R.ASIS			V.Sacral			L.Acromium			R.Acromium			C7			L.Elbow			R.Elbow			L.Wrist.Lat			R.Wrist.Lat
		X1	Y1	Z1	X2	Y2	Z2	X3	Y3	Z3	X4	Y4	Z4	X5	Y5	Z5	X6	Y6	Z6	X7	Y7	Z7	X8	Y8	Z8	X9	Y9	Z9	X10	Y10	Z10	X11	Y11	Z11	X12	Y12	Z12	X13	Y13	Z13	X14	Y14	Z14	X15	Y15	Z15	X16	Y16	Z16	X17	Y17	Z17	X18	Y18	Z18	X19	Y19	Z19	X20	Y20	Z20	X21	Y21	Z21	X22	Y22	Z22	X23	Y23	Z23	X24	Y24	Z24

122	0.484	-0.25367492	0.079480526	-0.050293796	-0.6439438	0.038703883	0.059379965	-0.40465031	0.094655175	-0.08625316	-0.79095378	0.05548086	0.086667272	-0.38283696	0.11481846	0.0081614232	-0.77834644	0.092966336	-0.0045137247	-0.46662749	0.046446351	-0.037004259	-0.85897517	0.035098886	0.034856983	-0.41295905	0.51375329	-0.11691347	-0.65749205	0.4937909	0.15438914	-0.41405463	0.50846461	0.0078709388	-0.67469636	0.48774995	0.026557548	-0.59923888	0.89102265	-0.15686278	-0.63968417	0.89984419	0.2138851	-0.53105368	0.97740098	-0.091600559	-0.53349114	0.98180234	0.14777023	-0.69787506	1.0349282	0.020521086	-0.54556251	1.4306209	-0.14438426	-0.56009639	1.4417072	0.18501023	-0.61687375	1.4871721	0.020684046	-0.71267264	1.1032556	-0.19937329	-0.68376631	1.0978537	0.28329025	-0.59693352	0.86743518	-0.24127364	-0.5028245	0.88785762	0.27721573
123	0.488	-0.23513471	0.082266482	-0.048475227	-0.64395094	0.038614335	0.059399916	-0.38635729	0.09355981	-0.085721906	-0.79096668	0.055557576	0.086546643	-0.36565787	0.1145239	0.0088121098	-0.77815148	0.092980833	-0.0046375421	-0.44718701	0.043827998	-0.036671415	-0.85891791	0.035211926	0.034588143	-0.40715136	0.51227904	-0.11722486	-0.65526073	0.49335814	0.15456531	-0.40816746	0.50703144	0.0077729378	-0.67261001	0.48740634	0.026512987	-0.5932616	0.88972404	-0.15690514	-0.6343346	0.89905197	0.21382226	-0.52482482	0.97617212	-0.091549208	-0.5276577	0.98074425	0.14785785	-0.69134065	1.0340922	0.020596527	-0.53969767	1.4295931	-0.14442097	-0.55411592	1.4405715	0.18501629	-0.61094416	1.4860767	0.020697481	-0.70715256	1.1025243	-0.19937605	-0.67750069	1.0965378	0.28337808	-0.59233656	0.8663698	-0.24172772	-0.49584145	0.88715816	0.27689501
124	0.492	-0.21690782	0.085315953	-0.046641374	-0.64394308	0.038533979	0.059423355	-0.36824125	0.092718537	-0.085205554	-0.79096138	0.055648361	0.086394204	-0.34863154	0.11448819	0.0094431428	-0.77794566	0.092990999	-0.0047781448	-0.42794158	0.041511437	-0.036403823	-0.85887643	0.035341526	0.034388253	-0.40139189	0.51068197	-0.1174942	-0.65292555	0.49291848	0.15476142	-0.40222573	0.50545524	0.0078817627	-0.67040754	0.48699208	0.026508738	-0.58722293	0.88836002	-0.15691437	-0.62895734	0.8982122	0.21374633	-0.51858236	0.97488735	-0.091484418	-0.52179733	0.97964245	0.14794426	-0.68506801	1.0329644	0.020540326	-0.53378874	1.4284891	-0.14445055	-0.54811672	1.4393599	0.18501382	-0.6050071	1.4849116	0.020699887	-0.70158419	1.1017131	-0.19940696	-0.67122304	1.0951512	0.28345648	-0.58764142	0.86524329	-0.24216116	-0.48886635	0.8863883	0.27658423
125	0.496	-0.19901827	0.088627909	-0.044842675	-0.64391723	0.038490806	0.059462813	-0.35036669	0.092120975	-0.084699439	-0.79088967	0.055799327	0.086214443	-0.33180927	0.11472246	0.010082339	-0.77772045	0.092997109	-0.0049414609	-0.40891133	0.039487062	-0.03617206	-0.85888208	0.035488869	0.03435648	-0.39563155	0.50895202	-0.11768217	-0.65070476	0.4924103	0.15489431	-0.39627179	0.50371969	0.0081538279	-0.66807455	0.4865241	0.026508733	-0.58113755	0.88692297	-0.15689343	-0.62355707	0.89732432	0.21366183	-0.5123265	0.97354741	-0.091410286	-0.51590965	0.97850011	0.14803817	-0.67896058	1.0316587	0.020376357	-0.52784874	1.4273185	-0.14448815	-0.54209263	1.4380736	0.1850016	-0.59905929	1.483684	0.020687054	-0.69596003	1.1008216	-0.19945863	-0.66492789	1.0936958	0.28352384	-0.58290303	0.86403297	-0.24258972	-0.48189837	0.8855449	0.27628025
126	0.5	-0.181491	0.092183268	-0.043102816	-0.6438808	0.038499307	0.059525935	-0.33276887	0.091784903	-0.084188303	-0.79073571	0.056042782	0.086017491	-0.3152755	0.11521412	0.010738335	-0.77747019	0.093001032	-0.0051307806	-0.39012131	0.037745535	-0.035955941	-0.85891737	0.035656146	0.034412281	-0.389847	0.50710244	-0.11777562	-0.64881669	0.49178458	0.15490572	-0.3904762	0.50179634	0.0084455107	-0.66564638	0.48604133	0.026495574	-0.57501205	0.88540475	-0.15685433	-0.61813709	0.89638094	0.21357667	-0.50605409	0.97215296	-0.091327426	-0.50999252	0.97731801	0.14814155	-0.67291131	1.0302524	0.020169499	-0.52189305	1.4260843	-0.14453967	-0.53604595	1.4367199	0.1849876	-0.59309236	1.4824104	0.020667581	-0.69026846	1.0998454	-0.19949302	-0.65861653	1.0921733	0.28358001	-0.57816591	0.86273265	-0.24302991	-0.47494192	0.88462527	0.27598032
